<?xml version="1.0" encoding="UTF-8"?>
<svg width="20px" height="20px" viewBox="0 0 20 20" version="1.1" xmlns="http://www.w3.org/2000/svg" xmlns:xlink="http://www.w3.org/1999/xlink">
    <title>1</title>
    <g id="1" stroke="none" stroke-width="1" fill="none" fill-rule="evenodd">
        <path d="M2.73396876,1.00053967 L17.2640366,1.01122339 C17.5401789,1.01142643 17.7638718,1.23544859 17.7636688,1.51159089 C17.7636224,1.57465957 17.7516444,1.6371501 17.7283667,1.69576586 L17.2057521,3.01176453 L17.2057521,3.01176453 L2.79424787,3.02352905 L2.26816981,1.68322425 C2.16727583,1.42617364 2.29386579,1.13600222 2.5509164,1.03510824 C2.60922957,1.01221995 2.67132455,1.00049361 2.73396876,1.00053967 Z" id="矩形" fill="#AF0D1A"></path>
        <g id="编组" transform="translate(2.000000, 1.011765)">
            <path d="M0.738054781,0 L5,0 L5,0 L8.99326537,10 L3.99326537,10 L0.273708679,0.685425721 C0.171300881,0.42897445 0.29617779,0.138061696 0.55262906,0.0356538983 C0.611612207,0.0121003628 0.67454273,1.0108677e-15 0.738054781,0 Z" id="矩形" fill="#F03A17"></path>
            <polygon id="矩形备份-2" fill="#FFFFFF" points="2 0 3.11194317 0 6.8454241 10 5.73348093 10"></polygon>
        </g>
        <g id="编组备份" transform="translate(13.500000, 6.011765) scale(-1, 1) translate(-13.500000, -6.011765) translate(9.000000, 1.011765)">
            <path d="M0.738054781,0 L5,0 L5,0 L8.99326537,10 L3.99326537,10 L0.273708679,0.685425721 C0.171300881,0.42897445 0.29617779,0.138061696 0.55262906,0.0356538983 C0.611612207,0.0121003628 0.67454273,1.0108677e-15 0.738054781,0 Z" id="矩形" fill="#F03A17"></path>
            <polygon id="矩形备份-2" fill="#FFFFFF" points="2 0 3.11194317 0 6.8454241 10 5.73348093 10"></polygon>
        </g>
        <g id="编组-3" transform="translate(5.000000, 9.011765)">
            <circle id="椭圆形" stroke="#FFB900" stroke-width="1.5" fill="#D48C00" cx="5" cy="5" r="4.25"></circle>
            <rect id="矩形" fill="#FFB900" x="4.5" y="3" width="1" height="4"></rect>
            <rect id="矩形备份" fill="#FFB900" x="4" y="6" width="2" height="1"></rect>
            <rect id="矩形" fill="#FFB900" x="4" y="3" width="1" height="1"></rect>
        </g>
    </g>
</svg>